{"title":"Twista - Adrenaline Rush - 1997 [FLAC] 1 MP3 [RLG]","uid":12507153,"size":397449514,"categoryP":"audio","categoryS":"flac","magnet":"?xt=urn:btih:6be1564eb965f3fe0d59312027e45b426a7ca8e3&amp;dn=Twista+-+Adrenaline+Rush+-+1997+%5BFLAC%5D+1+MP3+%5BRLG%5D&amp;tr=udp%3A%2F%2Ftracker.leechers-paradise.org%3A6969&amp;tr=udp%3A%2F%2Fzer0day.ch%3A1337&amp;tr=udp%3A%2F%2Fopen.demonii.com%3A1337&amp;tr=udp%3A%2F%2Ftracker.coppersurfer.tk%3A6969&amp;tr=udp%3A%2F%2Fexodus.desync.com%3A6969","seeders":0,"leechers":0,"uploader":"RedLegsGreaves","files":16,"time":1443467923,"description":"http://extraimago.com/images/2015/09/28/Twista_Adrenaline_Rush.jpg\r\n\r\n[b]Tracklist[/b]\r\nIntro\t2:04\r\nAdrenaline Rush\t3:43\r\nDeath Before Dishonor\t4:23\r\nIt Feels So Good\t6:08 [b][color=red]MP3 @ 320[/color][/b]\r\nOverdose\t4:16\r\nMobster's Anthem\t5:07\r\nGet Her In Tha Mood\t1:29\r\nEmotions\t4:32\r\nUnsolved Mystery\t4:45\r\nKorrupt World\t5:40\r\nGet It Wet\t4:03\r\nNo Remorse\t4:32\r\nEmotions (Remix)\t4:49\r\n\r\n[b]Twista\r\nReal Name:[/b]\r\nCarl Terrell Mitchell\r\n[b]Profile:[/b]\r\nAmerican hip-hop emcee, once the world-record holder for the fastest ever, born on November 27, 1973, in Chicago Illinois.\r\n\r\n[b]Twista ‎– Adrenaline Rush[/b]\r\n[b]Genre:[/b] Hip Hop\r\n[b]Style:[/b] Thug Rap\r\n[b]Year:[/b] 1997\r\n \nhttp://i.imgur.com/m2aIEij.png\r\n \nhttp://extraimago.com/images/2015/09/28/AdrenalineRushSpectroMP3.png \nhttp://extraimago.com/images/2015/09/28/AdrenalineRushSpectroFLAC.png\r\n\r\nAudio\r\nFormat                      : FLAC\r\nFormat/Info                 : Free Lossless Audio Codec\r\nDuration                    : 2mn 4s\r\nBit rate mode               : Variable\r\nBit rate                    : 940 Kbps\r\nChannel(s)                  : 2 channels\r\nSampling rate               : 44.1 KHz\r\nBit depth                   : 16 bits\r\nStream size                 : 13.9 MiB (100%)\r\nWriting library             : libFLAC 1.3.0 (UTC 2013-05-26)\r\n\r\n[b]Track #4[/b]\r\nAudio\r\nFormat                      : MPEG Audio\r\nFormat version              : Version 1\r\nFormat profile              : Layer 3\r\nDuration                    : 6mn 8s\r\nBit rate mode               : Constant\r\nBit rate                    : 320 Kbps\r\nChannel(s)                  : 2 channels\r\nSampling rate               : 44.1 KHz\r\nCompression mode            : Lossy\r\nStream size                 : 14.0 MiB (100%)\r\n \nhttp://i.imgur.com/fLhfPWl.jpg","torrent":{"xt":"urn:btih:6be1564eb965f3fe0d59312027e45b426a7ca8e3","amp;dn":"Twista+-+Adrenaline+Rush+-+1997+%5BFLAC%5D+1+MP3+%5BRLG%5D","amp;tr":["udp%3A%2F%2Ftracker.leechers-paradise.org%3A6969","udp%3A%2F%2Fzer0day.ch%3A1337","udp%3A%2F%2Fopen.demonii.com%3A1337","udp%3A%2F%2Ftracker.coppersurfer.tk%3A6969","udp%3A%2F%2Fexodus.desync.com%3A6969"],"infoHash":"6be1564eb965f3fe0d59312027e45b426a7ca8e3","infoHashBuffer":{"type":"Buffer","data":[107,225,86,78,185,101,243,254,13,89,49,32,39,228,91,66,106,124,168,227]},"announce":[],"urlList":[]}}